<svg width="13" height="13" viewBox="0 0 13 13" fill="none" xmlns="http://www.w3.org/2000/svg">
<g clip-path="url(#clip0_102_68)">
<path d="M11.3298 2.76103C11.0714 2.50249 10.7646 2.2974 10.4269 2.15747C10.0892 2.01755 9.7272 1.94553 9.36166 1.94553C8.99611 1.94553 8.63415 2.01755 8.29645 2.15747C7.95874 2.2974 7.65192 2.50249 7.3935 2.76103L6.85719 3.29734L6.32088 2.76103C5.79889 2.23905 5.09093 1.9458 4.35273 1.9458C3.61453 1.9458 2.90656 2.23905 2.38457 2.76103C1.86259 3.28302 1.56934 3.99099 1.56934 4.72919C1.56934 5.46739 1.86259 6.17536 2.38457 6.69734L2.92088 7.23365L6.85719 11.17L10.7935 7.23365L11.3298 6.69734C11.5883 6.43892 11.7934 6.1321 11.9334 5.7944C12.0733 5.45669 12.1453 5.09473 12.1453 4.72919C12.1453 4.36364 12.0733 4.00168 11.9334 3.66398C11.7934 3.32628 11.5883 3.01945 11.3298 2.76103V2.76103Z" stroke="#161616" stroke-width="0.728571" stroke-linecap="round" stroke-linejoin="round"/>
</g>
<defs>
<clipPath id="clip0_102_68">
<rect width="12.1429" height="12.1429" fill="white" transform="translate(0.785767 0.428574)"/>
</clipPath>
</defs>
</svg>
