<svg width="42" height="34" viewBox="0 0 42 34" fill="none" xmlns="http://www.w3.org/2000/svg">
<path fill-rule="evenodd" clip-rule="evenodd" d="M27.2222 0.40741C29.9309 0.40741 32.2373 2.13926 33.0918 4.55556H14.7777C12.0273 4.55556 9.3896 5.64815 7.44478 7.59297C5.49995 9.53779 4.40736 12.1755 4.40736 14.9259V24.9437C3.19388 24.5143 2.14335 23.7193 1.40045 22.6681C0.657561 21.6169 0.258845 20.3613 0.259217 19.0741V6.62963C0.259217 4.9794 0.91477 3.39675 2.08166 2.22986C3.24856 1.06296 4.8312 0.40741 6.48144 0.40741H27.2222ZM35.5185 8.70371H14.7777C13.1275 8.70371 11.5449 9.35926 10.378 10.5262C9.21107 11.693 8.55551 13.2757 8.55551 14.9259V27.3704C8.55551 29.0206 9.21107 30.6033 10.378 31.7701C11.5449 32.937 13.1275 33.5926 14.7777 33.5926H35.5185C37.1687 33.5926 38.7514 32.937 39.9183 31.7701C41.0851 30.6033 41.7407 29.0206 41.7407 27.3704V14.9259C41.7407 13.2757 41.0851 11.693 39.9183 10.5262C38.7514 9.35926 37.1687 8.70371 35.5185 8.70371ZM29.2963 21.1481C29.2963 22.2483 28.8592 23.3034 28.0813 24.0813C27.3034 24.8593 26.2483 25.2963 25.1481 25.2963C24.0479 25.2963 22.9929 24.8593 22.2149 24.0813C21.437 23.3034 21 22.2483 21 21.1481C21 20.048 21.437 18.9929 22.2149 18.215C22.9929 17.437 24.0479 17 25.1481 17C26.2483 17 27.3034 17.437 28.0813 18.215C28.8592 18.9929 29.2963 20.048 29.2963 21.1481Z" fill="url(#paint0_linear_1_74)"/>
<defs>
<linearGradient id="paint0_linear_1_74" x1="7.82095" y1="49.8395" x2="54.1832" y2="4.71226" gradientUnits="userSpaceOnUse">
<stop stop-color="#982DEC"/>
<stop offset="0.572917" stop-color="#DC8DF8"/>
<stop offset="0.895833" stop-color="#A9C4F3"/>
</linearGradient>
</defs>
</svg>
